<svg width="800" height="600" viewBox="0 0 800 600" fill="none" xmlns="http://www.w3.org/2000/svg">
  <rect width="800" height="600" fill="url(#gradient3)"/>
  <defs>
    <linearGradient id="gradient3" x1="0%" y1="0%" x2="100%" y2="100%">
      <stop offset="0%" style="stop-color:#4ade80;stop-opacity:1" />
      <stop offset="100%" style="stop-color:#06b6d4;stop-opacity:1" />
    </linearGradient>
  </defs>

  <!-- Document icons -->
  <g transform="translate(150, 120)">
    <rect x="0" y="0" width="120" height="160" rx="12" fill="white" opacity="0.9"/>
    <rect x="15" y="20" width="90" height="8" rx="4" fill="#e2e8f0"/>
    <rect x="15" y="35" width="75" height="8" rx="4" fill="#e2e8f0"/>
    <rect x="15" y="50" width="85" height="8" rx="4" fill="#e2e8f0"/>
    <rect x="15" y="65" width="60" height="8" rx="4" fill="#e2e8f0"/>
    <rect x="15" y="90" width="90" height="8" rx="4" fill="#e2e8f0"/>
    <rect x="15" y="105" width="70" height="8" rx="4" fill="#e2e8f0"/>
    <rect x="15" y="120" width="80" height="8" rx="4" fill="#e2e8f0"/>
  </g>

  <g transform="translate(300, 120)">
    <rect x="0" y="0" width="120" height="160" rx="12" fill="white" opacity="0.9"/>
    <rect x="15" y="20" width="90" height="8" rx="4" fill="#e2e8f0"/>
    <rect x="15" y="35" width="75" height="8" rx="4" fill="#e2e8f0"/>
    <rect x="15" y="50" width="85" height="8" rx="4" fill="#e2e8f0"/>
    <rect x="15" y="65" width="60" height="8" rx="4" fill="#e2e8f0"/>
    <rect x="15" y="90" width="90" height="8" rx="4" fill="#e2e8f0"/>
    <rect x="15" y="105" width="70" height="8" rx="4" fill="#e2e8f0"/>
    <rect x="15" y="120" width="80" height="8" rx="4" fill="#e2e8f0"/>
  </g>

  <g transform="translate(450, 120)">
    <rect x="0" y="0" width="120" height="160" rx="12" fill="white" opacity="0.9"/>
    <rect x="15" y="20" width="90" height="8" rx="4" fill="#e2e8f0"/>
    <rect x="15" y="35" width="75" height="8" rx="4" fill="#e2e8f0"/>
    <rect x="15" y="50" width="85" height="8" rx="4" fill="#e2e8f0"/>
    <rect x="15" y="65" width="60" height="8" rx="4" fill="#e2e8f0"/>
    <rect x="15" y="90" width="90" height="8" rx="4" fill="#e2e8f0"/>
    <rect x="15" y="105" width="70" height="8" rx="4" fill="#e2e8f0"/>
    <rect x="15" y="120" width="80" height="8" rx="4" fill="#e2e8f0"/>
  </g>

  <!-- Blog/Article mockup -->
  <rect x="200" y="320" width="400" height="180" rx="12" fill="white" opacity="0.9"/>
  <rect x="220" y="340" width="360" height="25" rx="4" fill="#1f2937"/>
  <rect x="220" y="375" width="300" height="12" rx="4" fill="#6b7280"/>
  <rect x="220" y="395" width="320" height="12" rx="4" fill="#6b7280"/>
  <rect x="220" y="415" width="280" height="12" rx="4" fill="#6b7280"/>
  <rect x="220" y="435" width="340" height="12" rx="4" fill="#6b7280"/>
  <rect x="220" y="455" width="260" height="12" rx="4" fill="#6b7280"/>

  <!-- Content creation icon -->
  <g transform="translate(350, 180)">
    <circle cx="50" cy="50" r="40" fill="white" opacity="0.3"/>
    <path d="M35 35 L65 35 L65 65 L35 65 Z M40 45 L60 45 M40 50 L60 50 M40 55 L55 55" stroke="white" stroke-width="2" fill="none" opacity="0.6"/>
  </g>

  <!-- Text -->
  <text x="400" y="530" text-anchor="middle" fill="white" font-family="Arial, sans-serif" font-size="32" font-weight="bold">Content Business</text>
  <text x="400" y="560" text-anchor="middle" fill="white" font-family="Arial, sans-serif" font-size="18" opacity="0.8">Blog, Newsletter, Media</text>
</svg>