<svg width="800" height="600" viewBox="0 0 800 600" fill="none" xmlns="http://www.w3.org/2000/svg">
  <rect width="800" height="600" fill="url(#gradient2)"/>
  <defs>
    <linearGradient id="gradient2" x1="0%" y1="0%" x2="100%" y2="100%">
      <stop offset="0%" style="stop-color:#ff6b6b;stop-opacity:1" />
      <stop offset="100%" style="stop-color:#feca57;stop-opacity:1" />
    </linearGradient>
  </defs>

  <!-- Shopping cart -->
  <g transform="translate(250, 180)">
    <rect x="0" y="20" width="80" height="60" rx="8" fill="white" opacity="0.9"/>
    <circle cx="15" cy="90" r="8" fill="white" opacity="0.9"/>
    <circle cx="65" cy="90" r="8" fill="white" opacity="0.9"/>
    <path d="M20 40 L60 40 L58 60 L22 60 Z" fill="#3b82f6"/>
  </g>

  <!-- Product cards -->
  <rect x="150" y="280" width="120" height="160" rx="12" fill="white" opacity="0.9"/>
  <rect x="160" y="290" width="100" height="80" rx="8" fill="#f1f5f9"/>
  <rect x="160" y="380" width="60" height="15" rx="4" fill="#e2e8f0"/>
  <rect x="160" y="400" width="80" height="12" rx="4" fill="#3b82f6"/>

  <rect x="290" y="280" width="120" height="160" rx="12" fill="white" opacity="0.9"/>
  <rect x="300" y="290" width="100" height="80" rx="8" fill="#f1f5f9"/>
  <rect x="300" y="380" width="60" height="15" rx="4" fill="#e2e8f0"/>
  <rect x="300" y="400" width="80" height="12" rx="4" fill="#10b981"/>

  <rect x="430" y="280" width="120" height="160" rx="12" fill="white" opacity="0.9"/>
  <rect x="440" y="290" width="100" height="80" rx="8" fill="#f1f5f9"/>
  <rect x="440" y="380" width="60" height="15" rx="4" fill="#e2e8f0"/>
  <rect x="440" y="400" width="80" height="12" rx="4" fill="#f59e0b"/>

  <!-- Shopping bag icon -->
  <g transform="translate(320, 150)">
    <path d="M20 10 L60 10 L65 60 L15 60 Z" fill="white" opacity="0.3"/>
    <path d="M25 15 L25 5 C25 2.24 27.24 0 30 0 L50 0 C52.76 0 55 2.24 55 5 L55 15" stroke="white" stroke-width="3" fill="none" opacity="0.6"/>
  </g>

  <!-- Text -->
  <text x="400" y="500" text-anchor="middle" fill="white" font-family="Arial, sans-serif" font-size="32" font-weight="bold">E-commerce Store</text>
  <text x="400" y="530" text-anchor="middle" fill="white" font-family="Arial, sans-serif" font-size="18" opacity="0.8">Online Retail Business</text>
</svg>