<svg width="800" height="600" viewBox="0 0 800 600" fill="none" xmlns="http://www.w3.org/2000/svg">
  <rect width="800" height="600" fill="url(#gradient5)"/>
  <defs>
    <linearGradient id="gradient5" x1="0%" y1="0%" x2="100%" y2="100%">
      <stop offset="0%" style="stop-color:#6366f1;stop-opacity:1" />
      <stop offset="100%" style="stop-color:#f59e0b;stop-opacity:1" />
    </linearGradient>
  </defs>

  <!-- Business icons grid -->
  <g transform="translate(200, 150)">
    <!-- Globe/Website -->
    <circle cx="60" cy="60" r="40" fill="white" opacity="0.3"/>
    <circle cx="60" cy="60" r="30" stroke="white" stroke-width="2" fill="none" opacity="0.6"/>
    <path d="M30 60 Q60 30 90 60 Q60 90 30 60" stroke="white" stroke-width="2" fill="none" opacity="0.6"/>
    <path d="M60 20 L60 100 M20 60 L100 60" stroke="white" stroke-width="1" fill="none" opacity="0.4"/>
  </g>

  <g transform="translate(350, 150)">
    <!-- Gear/Service -->
    <circle cx="60" cy="60" r="40" fill="white" opacity="0.3"/>
    <circle cx="60" cy="60" r="20" fill="white" opacity="0.6"/>
    <circle cx="60" cy="60" r="10" fill="none" stroke="white" stroke-width="2" opacity="0.8"/>
    <path d="M60 30 L65 35 L60 40 L55 35 Z M60 80 L65 85 L60 90 L55 85 Z M30 60 L35 55 L40 60 L35 65 Z M80 60 L85 55 L90 60 L85 65 Z" fill="white" opacity="0.6"/>
  </g>

  <g transform="translate(500, 150)">
    <!-- Building/Company -->
    <rect x="30" y="30" width="60" height="70" fill="white" opacity="0.3"/>
    <rect x="40" y="40" width="10" height="10" fill="white" opacity="0.6"/>
    <rect x="55" y="40" width="10" height="10" fill="white" opacity="0.6"/>
    <rect x="70" y="40" width="10" height="10" fill="white" opacity="0.6"/>
    <rect x="40" y="55" width="10" height="10" fill="white" opacity="0.6"/>
    <rect x="55" y="55" width="10" height="10" fill="white" opacity="0.6"/>
    <rect x="70" y="55" width="10" height="10" fill="white" opacity="0.6"/>
    <rect x="40" y="70" width="10" height="10" fill="white" opacity="0.6"/>
    <rect x="55" y="70" width="10" height="10" fill="white" opacity="0.6"/>
    <rect x="70" y="70" width="10" height="10" fill="white" opacity="0.6"/>
    <rect x="50" y="85" width="20" height="15" fill="white" opacity="0.8"/>
  </g>

  <!-- Feature boxes -->
  <rect x="150" y="280" width="150" height="120" rx="12" fill="white" opacity="0.9"/>
  <rect x="170" y="300" width="110" height="15" rx="4" fill="#6366f1"/>
  <rect x="170" y="325" width="80" height="10" rx="4" fill="#e2e8f0"/>
  <rect x="170" y="340" width="90" height="10" rx="4" fill="#e2e8f0"/>
  <rect x="170" y="355" width="70" height="10" rx="4" fill="#e2e8f0"/>

  <rect x="320" y="280" width="150" height="120" rx="12" fill="white" opacity="0.9"/>
  <rect x="340" y="300" width="110" height="15" rx="4" fill="#10b981"/>
  <rect x="340" y="325" width="80" height="10" rx="4" fill="#e2e8f0"/>
  <rect x="340" y="340" width="90" height="10" rx="4" fill="#e2e8f0"/>
  <rect x="340" y="355" width="70" height="10" rx="4" fill="#e2e8f0"/>

  <rect x="490" y="280" width="150" height="120" rx="12" fill="white" opacity="0.9"/>
  <rect x="510" y="300" width="110" height="15" rx="4" fill="#f59e0b"/>
  <rect x="510" y="325" width="80" height="10" rx="4" fill="#e2e8f0"/>
  <rect x="510" y="340" width="90" height="10" rx="4" fill="#e2e8f0"/>
  <rect x="510" y="355" width="70" height="10" rx="4" fill="#e2e8f0"/>

  <!-- Central icon -->
  <g transform="translate(350, 200)">
    <circle cx="50" cy="50" r="30" fill="white" opacity="0.3"/>
    <path d="M35 40 L65 40 M35 50 L65 50 M35 60 L65 60" stroke="white" stroke-width="3" opacity="0.6"/>
    <circle cx="30" cy="40" r="3" fill="white" opacity="0.8"/>
    <circle cx="30" cy="50" r="3" fill="white" opacity="0.8"/>
    <circle cx="30" cy="60" r="3" fill="white" opacity="0.8"/>
  </g>

  <!-- Text -->
  <text x="400" y="460" text-anchor="middle" fill="white" font-family="Arial, sans-serif" font-size="32" font-weight="bold">Business Services</text>
  <text x="400" y="490" text-anchor="middle" fill="white" font-family="Arial, sans-serif" font-size="18" opacity="0.8">Digital Business Solutions</text>
</svg>