<svg width="800" height="600" viewBox="0 0 800 600" fill="none" xmlns="http://www.w3.org/2000/svg">
  <rect width="800" height="600" fill="url(#gradient1)"/>
  <defs>
    <linearGradient id="gradient1" x1="0%" y1="0%" x2="100%" y2="100%">
      <stop offset="0%" style="stop-color:#667eea;stop-opacity:1" />
      <stop offset="100%" style="stop-color:#764ba2;stop-opacity:1" />
    </linearGradient>
  </defs>

  <!-- Cloud icons -->
  <g transform="translate(200, 150)">
    <path d="M100 80c-8.84 0-16-7.16-16-16s7.16-16 16-16c8.84 0 16 7.16 16 16s-7.16 16-16 16z" fill="white" opacity="0.3"/>
    <path d="M80 100c-13.25 0-24-10.75-24-24s10.75-24 24-24c13.25 0 24 10.75 24 24s-10.75 24-24 24z" fill="white" opacity="0.4"/>
    <path d="M120 100c-11.05 0-20-8.95-20-20s8.95-20 20-20c11.05 0 20 8.95 20 20s-8.95 20-20 20z" fill="white" opacity="0.4"/>
  </g>

  <!-- Dashboard mockup -->
  <rect x="150" y="250" width="500" height="300" rx="12" fill="white" opacity="0.9"/>
  <rect x="170" y="270" width="460" height="40" rx="8" fill="#f8fafc"/>
  <rect x="180" y="280" width="100" height="20" rx="4" fill="#e2e8f0"/>
  <rect x="290" y="280" width="80" height="20" rx="4" fill="#e2e8f0"/>

  <!-- Charts -->
  <rect x="170" y="330" width="200" height="120" rx="8" fill="#f1f5f9"/>
  <path d="M180 420 L220 380 L260 400 L300 360 L340 340" stroke="#3b82f6" stroke-width="3" fill="none"/>

  <rect x="390" y="330" width="240" height="120" rx="8" fill="#f1f5f9"/>
  <rect x="400" y="380" width="30" height="60" fill="#10b981"/>
  <rect x="440" y="360" width="30" height="80" fill="#3b82f6"/>
  <rect x="480" y="340" width="30" height="100" fill="#8b5cf6"/>
  <rect x="520" y="370" width="30" height="70" fill="#f59e0b"/>
  <rect x="560" y="350" width="30" height="90" fill="#ef4444"/>

  <!-- Text -->
  <text x="400" y="500" text-anchor="middle" fill="white" font-family="Arial, sans-serif" font-size="32" font-weight="bold">SaaS Platform</text>
  <text x="400" y="530" text-anchor="middle" fill="white" font-family="Arial, sans-serif" font-size="18" opacity="0.8">Software as a Service</text>
</svg>