<svg width="200" height="200" viewBox="0 0 200 200" fill="none" xmlns="http://www.w3.org/2000/svg">
  <defs>
    <linearGradient id="bgGradient" x1="0%" y1="0%" x2="100%" y2="100%">
      <stop offset="0%" style="stop-color:#3b82f6;stop-opacity:1" />
      <stop offset="100%" style="stop-color:#1d4ed8;stop-opacity:1" />
    </linearGradient>
    <linearGradient id="rocketBody" x1="0%" y1="0%" x2="0%" y2="100%">
      <stop offset="0%" style="stop-color:#ffffff;stop-opacity:1" />
      <stop offset="100%" style="stop-color:#e0e7ff;stop-opacity:1" />
    </linearGradient>
    <linearGradient id="flameOrange" x1="50%" y1="0%" x2="50%" y2="100%">
      <stop offset="0%" style="stop-color:#fbbf24;stop-opacity:1" />
      <stop offset="50%" style="stop-color:#f97316;stop-opacity:1" />
      <stop offset="100%" style="stop-color:#dc2626;stop-opacity:1" />
    </linearGradient>
    <linearGradient id="flameYellow" x1="50%" y1="0%" x2="50%" y2="100%">
      <stop offset="0%" style="stop-color:#fef3c7;stop-opacity:1" />
      <stop offset="50%" style="stop-color:#fbbf24;stop-opacity:1" />
      <stop offset="100%" style="stop-color:#f97316;stop-opacity:1" />
    </linearGradient>
    <filter id="shadow" x="-50%" y="-50%" width="200%" height="200%">
      <feGaussianBlur in="SourceAlpha" stdDeviation="4"/>
      <feOffset dx="0" dy="6" result="offsetblur"/>
      <feComponentTransfer>
        <feFuncA type="linear" slope="0.3"/>
      </feComponentTransfer>
      <feMerge>
        <feMergeNode/>
        <feMergeNode in="SourceGraphic"/>
      </feMerge>
    </filter>
  </defs>

  <!-- Background with gradient -->
  <rect x="20" y="20" width="160" height="160" rx="40" fill="url(#bgGradient)" filter="url(#shadow)"/>

  <!-- Decorative stars -->
  <circle cx="50" cy="60" r="3" fill="white" opacity="0.7">
    <animate attributeName="opacity" values="0.7;0.3;0.7" dur="2s" repeatCount="indefinite"/>
  </circle>
  <circle cx="150" cy="70" r="2.5" fill="white" opacity="0.6">
    <animate attributeName="opacity" values="0.6;0.2;0.6" dur="3s" repeatCount="indefinite"/>
  </circle>
  <circle cx="140" cy="50" r="2" fill="white" opacity="0.5">
    <animate attributeName="opacity" values="0.5;0.2;0.5" dur="2.5s" repeatCount="indefinite"/>
  </circle>
  <circle cx="60" cy="140" r="2" fill="white" opacity="0.4"/>
  <circle cx="160" cy="130" r="1.5" fill="white" opacity="0.3"/>

  <!-- Rocket body main cylinder -->
  <ellipse cx="100" cy="85" rx="22" ry="45" fill="url(#rocketBody)"/>

  <!-- Rocket nose cone -->
  <path d="M100 30 C90 30, 78 42, 78 55 C78 55, 78 60, 100 60 C122 60, 122 55, 122 55 C122 42, 110 30, 100 30 Z" fill="#60a5fa"/>

  <!-- Rocket windows -->
  <circle cx="100" cy="70" r="8" fill="#1e40af" opacity="0.3"/>
  <circle cx="100" cy="70" r="6" fill="#3b82f6"/>
  <circle cx="98" cy="68" r="2" fill="#93c5fd" opacity="0.8"/>

  <circle cx="100" cy="95" r="5" fill="#1e40af" opacity="0.2"/>
  <circle cx="100" cy="95" r="4" fill="#3b82f6" opacity="0.7"/>

  <!-- Left fin -->
  <path d="M78 100 L58 130 L58 145 C58 145, 62 140, 70 130 L78 115 Z" fill="#60a5fa"/>
  <path d="M78 100 L60 130 L68 130 L78 110 Z" fill="#3b82f6" opacity="0.7"/>

  <!-- Right fin -->
  <path d="M122 100 L142 130 L142 145 C142 145, 138 140, 130 130 L122 115 Z" fill="#60a5fa"/>
  <path d="M122 100 L140 130 L132 130 L122 110 Z" fill="#3b82f6" opacity="0.7"/>

  <!-- Bottom section of rocket -->
  <ellipse cx="100" cy="125" rx="22" ry="8" fill="#93c5fd" opacity="0.9"/>
  <ellipse cx="100" cy="125" rx="18" ry="5" fill="#3b82f6" opacity="0.3"/>

  <!-- Flame effect - outer orange -->
  <ellipse cx="85" cy="135" rx="7" ry="20" fill="url(#flameOrange)" opacity="0.95"/>
  <ellipse cx="100" cy="140" rx="9" ry="28" fill="url(#flameOrange)"/>
  <ellipse cx="115" cy="135" rx="7" ry="20" fill="url(#flameOrange)" opacity="0.95"/>

  <!-- Flame effect - inner yellow/white hot core -->
  <ellipse cx="85" cy="135" rx="4" ry="14" fill="url(#flameYellow)"/>
  <ellipse cx="100" cy="140" rx="5" ry="20" fill="url(#flameYellow)"/>
  <ellipse cx="115" cy="135" rx="4" ry="14" fill="url(#flameYellow)"/>

  <!-- Hot white center -->
  <ellipse cx="100" cy="138" rx="3" ry="12" fill="white" opacity="0.9"/>

  <!-- Detail stripes on rocket body -->
  <rect x="97" y="85" width="6" height="30" fill="#93c5fd" opacity="0.4" rx="3"/>
  <rect x="88" y="90" width="3" height="25" fill="#3b82f6" opacity="0.2" rx="1.5"/>
  <rect x="109" y="90" width="3" height="25" fill="#3b82f6" opacity="0.2" rx="1.5"/>

  <!-- USA style stripe detail -->
  <path d="M85 75 L115 75 L115 78 L85 78 Z" fill="#ef4444" opacity="0.6"/>
  <path d="M85 80 L115 80 L115 83 L85 83 Z" fill="#ef4444" opacity="0.6"/>
</svg>